<svg xmlns="http://www.w3.org/2000/svg" viewBox="0 0 64 64">
  <defs>
    <linearGradient id="g" x1="0" y1="0" x2="1" y2="1">
      <stop offset="0" stop-color="#45c8f0"/><stop offset="1" stop-color="#6a8cff"/>
    </linearGradient>
    <clipPath id="c"><rect x="4" y="4" width="56" height="56" rx="18"/></clipPath>
  </defs>
  <rect x="4" y="4" width="56" height="56" rx="18" fill="url(#g)"/>
  <g clip-path="url(#c)">
    <path d="M8 42 C16 34 26 34 34 40 C42 46 50 44 58 37" stroke="#ffffff" stroke-width="4.5" fill="none" stroke-linecap="round"/>
    <path d="M8 50 C16 44 26 44 34 48 C42 52 50 50 58 45" stroke="rgba(255,255,255,.55)" stroke-width="3.5" fill="none" stroke-linecap="round"/>
    <circle cx="20" cy="17" r="3" fill="rgba(255,255,255,.75)"/>
    <circle cx="28" cy="25" r="2" fill="rgba(255,255,255,.5)"/>
  </g>
  <path d="M45 10 l2.2 6 6 2.2 -6 2.2 -2.2 6 -2.2 -6 -6 -2.2 6 -2.2z" fill="#ffffff"/>
</svg>
